# xmcd
#
# Track frame offsets:
#	150
#	14364
#	27912
#	40066
#	53768
#	67850
#	81068
#	95513
#	111040
#	126491
#	137955
#	148470
#	160567
#	173198
#	187587
#	201246
#	214902
#	228249
#	242102
#	258162
#	271449
#	286409
#	298670
#	313315
#	324992
#
# Disc length: 4464 seconds
#
# Revision: 1
# Processed by: cddbd v1.5.2PL0 Copyright (c) Steve Scherf et al.
# Submitted via: audiograbber 1.83.01
#
DISCID=70116e19
DTITLE=John Lee Hooker - The Very Best Of John Lee Hooker [CD2]
DYEAR=2009
DGENRE=Blues
TTITLE0=Boogie Chillen
TTITLE1=Crawling Kingsnake
TTITLE2=Burnin' Hell
TTITLE3=Highway Blues
TTITLE4=Wishin' And Moanin' Blues
TTITLE5=Hoogie Boogie
TTITLE6=Do The Boogie
TTITLE7=Goin' Home Blues
TTITLE8=Landing Blues
TTITLE9=Twister Blues
TTITLE10=Hastings Street Boogie
TTITLE11=Miss Eloise
TTITLE12=Graveyard Blues
TTITLE13=Sally Mae
TTITLE14=Miss Rosie Mae
TTITLE15=Hobo Blues
TTITLE16=Build Myself A Cave
TTITLE17=Alberta
TTITLE18=Lowdown Midnight Boogie
TTITLE19=Momma Poppa Boogie
TTITLE20=Shady Grove Blues
TTITLE21=Walkin' The Boogie
TTITLE22=Sugar Mama
TTITLE23=Queen Bee
TTITLE24=Dimples (Alternate Version)
EXTD=
EXTT0=
EXTT1=
EXTT2=
EXTT3=
EXTT4=
EXTT5=
EXTT6=
EXTT7=
EXTT8=
EXTT9=
EXTT10=
EXTT11=
EXTT12=
EXTT13=
EXTT14=
EXTT15=
EXTT16=
EXTT17=
EXTT18=
EXTT19=
EXTT20=
EXTT21=
EXTT22=
EXTT23=
EXTT24=
PLAYORDER=
